<svg height="512" viewBox="0 0 58 60" width="512" xmlns="http://www.w3.org/2000/svg">
    <g id="Page-1" fill="none" fill-rule="evenodd">
        <g id="047---Delete" fill-rule="nonzero">
            <path id="Shape" d="m53 12.89-.24 3.11-3.21 41.09c-.1867983 1.1608684-1.2268257 1.9885569-2.4 1.91h-36.3c-1.17317431.0785569-2.21320168-.7491316-2.4-1.91l-3.21-41.09-.24-3.11z" fill="rgba(231, 76, 60, .6)"/>
            <path id="Shape" d="m50 12.89-.24 3.11-3.21 41.09c-.1867983 1.1608684-1.2268257 1.9885569-2.4 1.91h-33.3c-1.17317431.0785569-2.21320168-.7491316-2.4-1.91l-3.21-41.09-.24-3.11z" fill="rgba(231, 76, 60, .1)"/>
            <path id="Shape" d="m57 10c.0014357 1.0613054-.4195306 2.0795554-1.1699876 2.8300124s-1.768707 1.1714233-2.8300124 1.1699876h-48c-2.209139 0-4-1.790861-4-4s1.790861-4 4-4h48c1.0609554-.00029188 2.0785407.42104175 2.8287495 1.17125054.7502088.7502088 1.1715424 1.76779405 1.1712505 2.82874946z" fill="rgba(231, 76, 60, .6)"/>
            <path id="Shape" d="m54 10c.0014357 1.0613054-.4195306 2.0795554-1.1699876 2.8300124s-1.768707 1.1714233-2.8300124 1.1699876h-45c-2.209139 0-4-1.790861-4-4s1.790861-4 4-4h45c1.0609554-.00029188 2.0785407.42104175 2.8287495 1.17125054.7502088.7502088 1.1715424 1.76779405 1.1712505 2.82874946z" fill="rgba(231, 76, 60, .1)"/>
            <path id="Shape" d="m5.0856 14 .1544 2 3.21 41.09c.18679832 1.1608684 1.22682569 1.9885569 2.4 1.91h3c-1.1731743.0785569-2.2132017-.7491316-2.4-1.91l-3.21-41.09-.1544-2h-.0856c-2.209139 0-4-1.790861-4-4s1.790861-4 4-4h-3c-2.209139 0-4 1.790861-4 4s1.790861 4 4 4z" fill="#fff"/>
            <path id="Shape" d="m53 15h-48c-2.76142375 0-5-2.2385763-5-5 0-2.76142375 2.23857625-5 5-5h48c2.7614237 0 5 2.23857625 5 5 0 2.7614237-2.2385763 5-5 5zm-48-8c-1.65685425 0-3 1.34314575-3 3 0 1.6568542 1.34314575 3 3 3h48c1.6568542 0 3-1.3431458 3-3 0-1.65685425-1.3431458-3-3-3z" fill="#c0392b"/>
            <path id="Shape" d="m42.001 7c-.3040334.00086637-.591795-.13725037-.7813-.375l-.998-1.2471c-1.7040924-2.14006308-4.2926535-3.384162-7.0283-3.3779h-8.3868c-2.7354098-.00645869-5.3237468 1.23770954-7.0273 3.3779l-.9993 1.2471c-.3507413.41075355-.9642746.46875767-1.3857798.13101315-.4215051-.33774451-.4986385-.94916746-.1742202-1.38101315l.9981-1.2471c2.0820596-2.61555298 5.2454439-4.13597375 8.5885-4.1279h8.3868c3.3434681-.00802985 6.5072921 1.51233677 8.59 4.1279l.9966 1.2471c.2401148.29990225.2871903.71084849.1211157 1.05728133-.1660745.34643284-.5159333.56709487-.9001157.56771867z" fill="#c0392b"/>
            <path id="Shape" d="m5.997 13.92 1.037 12.959 2.413 30.174-1.993.16-2.414-30.175-1.037-12.958z" fill="#fff"/>
            <g fill="#c0392b">
                <path id="Shape" d="m5.3987 18.9841c.54974148-.0456139.9594677-.5265988.9171-1.0766l-.319-3.9875-1.9936.16.3189 3.9872c.04576989.5496343.5266889.9592151 1.0766.9169z"/>
                <path id="Shape" d="m7.4539 57.2128 1.9935-.16-2.4937-31.1708c-.04686364-.5481582-.52771118-.9555084-1.07611658-.9116326-.5484054.0438757-.95836994.5224962-.91748342 1.0711326z"/>
                <path id="Shape" d="m6.6348 21.8948c-.0250696-.2635454-.14849851-.5079754-.3457-.6846l-.159-.1078c-.05867193-.0334005-.12152196-.0588566-.1869-.0757-.05882794-.0241432-.12095939-.0392799-.1843-.0449-.0667243-.0060134-.13378579-.0073833-.2007-.0041-.2635906.0248144-.50807718.1482899-.6845.3457-.22314496.2523613-.30200895.6011804-.20912987.9249911.09287909.3238107.34464587.5777945.66762987.6735089.12402806.0415397.25500527.0583238.3855.0494.26539736-.0185156.5121738-.1430692.68470229-.3455846.17252848-.2025155.25628792-.4659478.23239771-.7309154z"/>
                <path id="Shape" d="m47.1543 60h-36.3086c-1.6791398.082131-3.14666122-1.1230395-3.3926-2.7861-.04476268-.5506831.36536688-1.0333873.91605-1.07815s1.03338732.3653669 1.07815.91605c.042.5234.6689.9482 1.3984.9482h36.3086c.73 0 1.3564-.4248 1.3984-.9482l3.3643-42.0518h-46.917c-.55228475 0-1-.4477153-1-1s.44771525-1 1-1h48c.2791245.000066.5455316.1167308.7348744.3218157.1893427.2050849.2844049.4799423.2622256.7581843l-3.45 43.1328c-.2454363 1.6635803-1.7132208 2.8693717-3.3928 2.7872z"/>
                <path id="Shape" d="m26 51c-.5522847 0-1-.4477153-1-1v-27c0-2.209139 1.790861-4 4-4s4 1.790861 4 4c0 .5522847-.4477153 1-1 1s-1-.4477153-1-1c0-1.1045695-.8954305-2-2-2s-2 .8954305-2 2v27c0 .5522847-.4477153 1-1 1z"/>
                <path id="Shape" d="m14 51c-.5522847 0-1-.4477153-1-1v-27c0-2.209139 1.790861-4 4-4s4 1.790861 4 4c0 .5522847-.4477153 1-1 1s-1-.4477153-1-1c0-1.1045695-.8954305-2-2-2s-2 .8954305-2 2v27c0 .5522847-.4477153 1-1 1z"/>
                <path id="Shape" d="m38 51c-.5522847 0-1-.4477153-1-1v-27c0-2.209139 1.790861-4 4-4s4 1.790861 4 4c0 .5522847-.4477153 1-1 1s-1-.4477153-1-1c0-1.1045695-.8954305-2-2-2s-2 .8954305-2 2v27c0 .5522847-.4477153 1-1 1z"/>
            </g>
        </g>
    </g>
</svg>